# xmcd
#
# Track frame offsets:
#	150
#	15232
#	31015
#	50787
#	63862
#	83145
#	100872
#	117930
#	135312
#	149470
#	165202
#	182625
#	199310
#	216575
#	235680
#
# Disc length: 3320 seconds
#
# Revision: 0
# Processed by: cddbd v1.4PL0 Copyright (c) Steve Scherf et al.
# Submitted via: audiograbber 1.81.01
#
DISCID=c30cf60f
DTITLE=Various Artist - Update Live
DYEAR=1992
DGENRE=Alternative
TTITLE0=Green On Red - Two Lovers Waiting To Die (Accoustic)
TTITLE1=The Scene - Blauw (Accoustic)
TTITLE2=Charles et les Lulus - To High To Eat (Accoustic)
TTITLE3=Rory Block - Turning Point (Accoustic)
TTITLE4=Southside Johnny - It's Been A Long Time (Accoustic)
TTITLE5=La Fille D'Ernest - Système D. (Accoustic)
TTITLE6=Bruce Cockburn - Soul Of A Man (Accoustic)
TTITLE7=Lonnie Mack - Riding The Blinds (Accoustic)
TTITLE8=Poésie Noire - Just To Be Me Again (Accoustic)
TTITLE9=Murphy, Elliot James - Sicily (Tropic Of Seperation) (Accoustic)
TTITLE10=Richard Thompson - Misunderstood (Accoustic)
TTITLE11=Thin White Rope - Bartenders Rag (Accoustic)
TTITLE12=Steen, Jos - Heaven Blues (Accoustic)
TTITLE13=Loudon Wainwright III - Hard Day On The Planet (Accoustic)
TTITLE14=Green On Red - Silver Buckles (Accoustic)
EXTD=
EXTT0=
EXTT1=
EXTT2=
EXTT3=
EXTT4=
EXTT5=
EXTT6=
EXTT7=
EXTT8=
EXTT9=
EXTT10=
EXTT11=
EXTT12=
EXTT13=
EXTT14=
PLAYORDER=
